:SAMPLES-PER-SECOND 30
:FULLY-SPECIFIED
:DEGREES
32
root  -64.8935 40.9328 5.29856 141.269 87.8629 140.013
RightUpLeg  -1.95791 -5.96696 -2.05623
RightLeg  6.54734 9.90043 -0.22642
RightFoot  -4.84494 0.0386033 -1.25889
RightToes  3.49245e-010 0 -3.6325e-017
Spine  -1.3235 0.223706 3.64587
Spine1  6.56919 0.752633 -2.53744
HEad  -17.9038 -1.12561 -3.92563
LeftShoulder1  -0.601047 5.05044 -32.714
LeftArm  7.76358 6.2173 -42.4472
LeftForeArm  27.8032 -15.6395 -7.36746
LeftHand  -0.0353746 7.33576 -0.0797766
RightShoulder  -0.953302 -6.17132 29.1733
RightArm  16.0289 -2.68552 48.0042
RightForeArm  17.8552 12.4569 6.39131
RightHand  0.0627714 5.00269 0.41608
LeftUpLeg  2.62535 6.2154 1.84216
LeftLeg  1.60737 1.7333 0.333941
LeftFoot  -3.09417 -0.0482281 0.927106
LeftToes  -5.6298e-010 8.41567e-011 -1.83319e-011
33
root  -64.8301 40.904 5.37377 142.514 87.5343 141.181
RightUpLeg  -2.14055 -6.00603 -2.17249
RightLeg  7.11608 9.64339 -0.0726765
RightFoot  -5.55141 0.0266598 -1.27082
RightToes  3.49245e-010 0 -3.6325e-017
Spine  -1.50391 0.327194 3.5254
Spine1  6.70885 0.813282 -2.34001
HEad  -17.2254 -1.47029 -4.36343
LeftShoulder1  -0.557236 4.93479 -32.7922
LeftArm  7.10669 6.23159 -42.514
LeftForeArm  28.4563 -15.5515 -7.32967
LeftHand  -0.0348241 7.32069 0.133831
RightShoulder  -0.968994 -6.21939 29.1215
RightArm  15.933 -3.18878 47.7948
RightForeArm  19.5606 13.0525 6.06373
RightHand  0.165425 3.17143 1.95924
LeftUpLeg  2.46716 6.16103 1.77991
LeftLeg  1.90094 1.45892 0.362452
LeftFoot  -3.34111 -0.0373266 0.820654
LeftToes  -5.6298e-010 8.41567e-011 -1.83319e-011
34
root  -64.7631 40.8575 5.46317 143.097 87.1917 141.818
RightUpLeg  -2.39005 -5.7676 -2.17037
RightLeg  8.10326 9.12841 -0.0830553
RightFoot  -6.4186 0.0106566 -1.26059
RightToes  3.49245e-010 0 -3.6325e-017
Spine  -1.62033 0.327297 3.78372
Spine1  7.04173 0.907089 -2.71773
HEad  -16.2679 -1.29956 -4.23264
LeftShoulder1  -0.576358 4.99466 -32.5078
LeftArm  7.64552 6.29732 -42.6734
LeftForeArm  27.5054 -15.9681 -7.13285
LeftHand  -0.0403674 7.4872 0.0327636
RightShoulder  -0.99652 -6.28756 29.2417
RightArm  15.793 -2.88644 47.8565
RightForeArm  21.6759 12.8998 6.03818
RightHand  0.331143 4.39901 3.69312
LeftUpLeg  2.24423 6.07952 1.72715
LeftLeg  2.64849 1.28253 0.433421
LeftFoot  -3.85923 -0.0159055 0.603527
LeftToes  -5.6298e-010 8.41567e-011 -1.83319e-011
35
root  -64.6851 40.7919 5.55909 146.095 86.9453 145.273
RightUpLeg  -2.14469 -5.46024 -2.04476
RightLeg  9.06253 8.68374 -0.0551144
RightFoot  -7.48111 -0.00957032 -1.21173
RightToes  3.49245e-010 0 -3.6325e-017
Spine  -1.02675 0.316002 4.11994
Spine1  6.95285 0.926301 -2.74596
HEad  -15.2224 -1.23154 -4.21198
LeftShoulder1  -0.589287 5.01977 -32.7267
LeftArm  8.7747 6.76083 -42.3538
LeftForeArm  25.8059 -16.9563 -6.61469
LeftHand  -0.0394083 7.12202 -0.0499877
RightShoulder  -0.937725 -6.14977 28.8742
RightArm  15.4117 -3.00948 48.3391
RightForeArm  19.0845 11.9147 6.4193
RightHand  0.164555 4.79845 1.51441
LeftUpLeg  2.1241 6.34461 2.08867
LeftLeg  4.14618 0.68764 0.271976
LeftFoot  -4.80376 0.00189535 0.4617
LeftToes  -5.6298e-010 8.41567e-011 -1.83319e-011
36
root  -64.59 40.6729 5.6487 148.214 86.7714 147.892
RightUpLeg  -2.20437 -5.15482 -1.94845
RightLeg  10.791 8.30095 0.158072
RightFoot  -8.85679 -0.035888 -1.13046
RightToes  3.49245e-010 0 -3.6325e-017
Spine  -0.368117 0.471179 4.96149
Spine1  6.88939 1.2421 -3.1369
HEad  -14.0663 -1.83139 -4.52331
LeftShoulder1  -0.510939 4.82113 -32.6302
LeftArm  11.017 8.02752 -42.0533
LeftForeArm  23.4517 -19.0278 -5.50845
LeftHand  -0.0318047 6.24593 0.287691
RightShoulder  -0.994252 -6.30565 28.9344
RightArm  15.4218 -2.98343 48.4936
RightForeArm  18.5047 11.7176 6.51672
RightHand  9.95581e-005 3.15111 -0.200288
LeftUpLeg  1.49595 5.99096 2.20819
LeftLeg  6.80737 0.670409 0.579804
LeftFoot  -6.30223 0.0413291 -0.0683714
LeftToes  -5.6298e-010 8.41567e-011 -1.83319e-011
37
root  -64.5031 40.4932 5.71407 156.889 86.6018 157.145
RightUpLeg  -2.33017 -5.21083 -1.53834
RightLeg  12.8527 7.99061 0.516262
RightFoot  -10.385 -0.059507 -1.23415
RightToes  3.49245e-010 0 -3.6325e-017
Spine  0.352967 0.314097 6.65684
Spine1  7.03201 1.39765 -3.9114
HEad  -13.3903 -1.85485 -4.36785
LeftShoulder1  -0.483435 4.76981 -32.0455
LeftArm  13.1829 9.70998 -41.8636
LeftForeArm  19.8995 -21.677 -4.35322
LeftHand  -0.0249383 6.29819 1.03984
RightShoulder  -1.00257 -6.32236 29.0198
RightArm  15.2135 -2.01686 49.0056
RightForeArm  18.2415 10.7685 6.83154
RightHand  0.0148087 3.40865 -0.103601
LeftUpLeg  0.0766401 5.09915 2.7273
LeftLeg  11.1143 1.10511 0.811602
LeftFoot  -8.14844 0.0578459 -0.318248
LeftToes  -5.6298e-010 8.41567e-011 -1.83319e-011
38
root  -64.4454 40.2799 5.80219 165.935 86.143 166.539
RightUpLeg  -2.82285 -5.2553 -1.04289
RightLeg  15.0999 7.39817 0.796522
RightFoot  -12.174 -0.0911807 -1.15197
RightToes  3.49245e-010 0 -3.6325e-017
Spine  0.823982 0.19836 7.43256
Spine1  7.48032 1.27742 -3.14302
HEad  -13.1919 -1.90381 -4.70204
LeftShoulder1  -0.551829 4.93416 -32.4276
LeftArm  13.9125 10.8069 -41.0959
LeftForeArm  17.6791 -23.5874 -4.10382
LeftHand  -0.0271461 6.47336 0.741191
RightShoulder  -0.914475 -6.11017 28.5074
RightArm  15.5791 -1.21051 49.4909
RightForeArm  18.0513 11.1942 6.79707
RightHand  0.062546 5.07026 0.420355
LeftUpLeg  -2.65726 3.59492 3.34554
LeftLeg  17.2618 1.89196 0.967611
LeftFoot  -9.46894 0.0762834 -1.28285
LeftToes  -5.6298e-010 8.41567e-011 -1.83319e-011
39
root  -64.382 40.0917 5.86303 169.719 85.3929 170.912
RightUpLeg  -2.9229 -5.61783 -0.910818
RightLeg  17.1189 6.97894 1.07243
RightFoot  -13.7332 -0.118227 -1.22571
RightToes  3.49245e-010 0 -3.6325e-017
Spine  2.32805 0.102967 8.12609
Spine1  6.91708 1.2527 -2.49558
HEad  -13.0445 -2.35609 -5.15549
LeftShoulder1  -0.601443 5.0484 -32.7905
LeftArm  14.3085 11.6748 -40.4381
LeftForeArm  16.568 -24.1479 -4.29014
LeftHand  -0.0247813 6.78713 0.905086
RightShoulder  -0.838804 -5.91597 28.1775
RightArm  16.4365 -0.452116 49.6868
RightForeArm  17.1475 11.6713 6.87756
RightHand  -0.0912829 4.48312 -1.31833
LeftUpLeg  -5.84297 2.58081 3.83655
LeftLeg  24.4814 1.27061 0.943648
LeftFoot  -9.39803 0.131369 -4.21476
LeftToes  -5.6298e-010 8.41567e-011 -1.83319e-011
40
root  -64.2913 39.9288 5.91911 173.543 84.566 175.368
RightUpLeg  -2.62536 -5.99503 -0.668594
RightLeg  18.5412 6.58874 1.21639
RightFoot  -15.1261 -0.134793 -0.993353
RightToes  3.49245e-010 0 -3.6325e-017
Spine  3.16287 0.102479 9.46765
Spine1  7.44767 1.53048 -2.70449
HEad  -12.9532 -3.50474 -5.21248
LeftShoulder1  -0.567633 4.96163 -32.7867
LeftArm  13.8381 11.8966 -40.5445
LeftForeArm  17.0609 -23.4742 -4.15496
LeftHand  -0.0327711 6.28423 0.208522
RightShoulder  -0.897294 -6.09038 28.1112
RightArm  16.4537 1.40741 50.2716
RightForeArm  17.6795 11.7598 6.83123
RightHand  0.00547578 2.73289 -0.146148
LeftUpLeg  -9.42835 1.65087 4.49342
LeftLeg  32.056 0.474356 0.675666
LeftFoot  -7.32064 0.311607 -7.47772
LeftToes  -5.6298e-010 8.41567e-011 -1.83319e-011
41
root  -64.1594 39.7996 5.95145 176.618 83.9528 178.708
RightUpLeg  -2.48494 -6.45536 -0.444051
RightLeg  19.5659 6.51834 1.40708
RightFoot  -16.3082 -0.142552 -0.733002
RightToes  3.49245e-010 0 -3.6325e-017
Spine  3.9877 0.107544 10.9069
Spine1  7.24418 1.84164 -3.25339
HEad  -12.426 -3.62907 -4.54032
LeftShoulder1  -0.558926 4.94208 -32.7122
LeftArm  13.4104 12.7906 -40.5069
LeftForeArm  18.6151 -22.9615 -4.07892
LeftHand  -0.0300313 5.87149 0.406255
RightShoulder  -0.851299 -5.95354 28.1558
RightArm  16.4736 2.80859 50.5697
RightForeArm  17.0209 11.8534 6.82297
RightHand  -0.0418038 2.78256 -0.814334
LeftUpLeg  -13.6276 1.18929 4.90187
LeftLeg  39.2464 0.565102 0.869919
LeftFoot  -3.00912 0.589054 -8.02637
LeftToes  -5.6298e-010 8.41567e-011 -1.83319e-011
42
root  -63.9362 39.7079 5.96402 177.77 83.6539 -179.962
RightUpLeg  -2.11815 -6.91874 -0.415989
RightLeg  20.1259 6.7222 1.62625
RightFoot  -17.1912 -0.157296 -0.805092
RightToes  3.49245e-010 0 -3.6325e-017
Spine  4.43276 0.312905 11.8986
Spine1  7.29038 2.26467 -3.68696
HEad  -12.0928 -4.48809 -4.34564
LeftShoulder1  -0.558899 4.94151 -32.7263
LeftArm  13.0314 14.0203 -40.3533
LeftForeArm  19.5255 -22.5088 -4.0964
LeftHand  -0.0332366 6.40457 0.117453
RightShoulder  -0.90642 -6.10739 28.236
RightArm  17.1715 4.63418 50.6818
RightForeArm  16.1529 12.2106 6.85345
RightHand  -0.0486525 2.23373 -0.904489
LeftUpLeg  -17.213 1.03538 4.92468
LeftLeg  44.6562 0.51813 0.928988
LeftFoot  -0.100795 0.62286 -6.27543
LeftToes  -5.6298e-010 8.41567e-011 -1.83319e-011
43
root  -63.6328 39.7102 5.96589 174.181 83.8247 176.275
RightUpLeg  -1.70756 -7.20777 -0.923388
RightLeg  20.0482 7.3673 1.80116
RightFoot  -17.6795 -0.155089 -0.641806
RightToes  3.49245e-010 0 -3.6325e-017
Spine  4.72221 0.670249 12.2135
Spine1  6.9249 2.80643 -4.5335
HEad  -11.2192 -4.58 -4.00204
LeftShoulder1  -0.529298 4.86845 -32.6363
LeftArm  12.2236 15.8064 -39.9938
LeftForeArm  20.0144 -21.8004 -4.26539
LeftHand  -0.0356382 6.9668 0.100929
RightShoulder  -0.996598 -6.31211 28.9302
RightArm  17.1956 6.67812 50.3939
RightForeArm  14.9971 11.6615 7.12041
RightHand  -0.112491 3.29641 -1.75954
LeftUpLeg  -19.9414 1.49221 4.29646
LeftLeg  47.0642 -0.379337 -0.0230592
LeftFoot  -0.98722 0.582507 -6.35539
LeftToes  -5.6298e-010 8.41567e-011 -1.83319e-011
44
root  -63.2415 39.7499 5.95013 168.05 83.9169 169.94
RightUpLeg  -0.866725 -7.76877 -1.80954
RightLeg  19.3303 8.24731 1.95563
RightFoot  -18.0899 -0.153703 -0.53052
RightToes  3.49245e-010 0 -3.6325e-017
Spine  5.09286 1.10437 11.9679
Spine1  6.19018 3.29997 -5.18081
HEad  -10.111 -5.4101 -3.68691
LeftShoulder1  -0.439469 4.64259 -32.4581
LeftArm  11.0445 17.7432 -39.6249
LeftForeArm  21.8559 -20.4486 -4.71038
LeftHand  -0.0391802 6.12549 -0.723508
RightShoulder  -1.09784 -6.57438 29.2281
RightArm  18.0548 7.30422 50.1053
RightForeArm  14.1493 13.3205 6.62495
RightHand  -0.106988 2.63478 -1.76746
LeftUpLeg  -21.75 2.07676 3.33476
LeftLeg  46.4411 -1.34129 -1.09938
LeftFoot  -1.7439 0.498957 -5.81842
LeftToes  -5.6298e-010 8.41567e-011 -1.83319e-011
